PathFileType	4	(X/Y/Z)	/tmp/tmpfnw413rt//results/MarkerData/Run_5.trc
DataRate	CameraRate	NumFrames	NumMarkers	Units	OrigDataRate	OrigDataStartFrame	OrigNumFrames
100	100	8	45	m	100	91	364
Frame#	Time	C7			CLAV			LACR			LASI			LCAL			LFAradius			LFAsuperior			LFAulna			LLEL			LMEL			LMT5			LPSH			LPSI			LTB1			LTB2			LTB3			LTH1			LTH2			LTH3			LTOE			LUA1			LUA2			LUA3			RACR			RASI			RCAL			RFAradius			RFAsuperior			RFAulna			RLEL			RLMAL			RMEL			RMMAL			RMT5			RPSI			RTB1			RTB2			RTB3			RTH1			RTH2			RTH3			RTOE			RUA1			RUA2			RUA3		
		X1	Y1	Z1	X2	Y2	Z2	X3	Y3	Z3	X4	Y4	Z4	X5	Y5	Z5	X6	Y6	Z6	X7	Y7	Z7	X8	Y8	Z8	X9	Y9	Z9	X10	Y10	Z10	X11	Y11	Z11	X12	Y12	Z12	X13	Y13	Z13	X14	Y14	Z14	X15	Y15	Z15	X16	Y16	Z16	X17	Y17	Z17	X18	Y18	Z18	X19	Y19	Z19	X20	Y20	Z20	X21	Y21	Z21	X22	Y22	Z22	X23	Y23	Z23	X24	Y24	Z24	X25	Y25	Z25	X26	Y26	Z26	X27	Y27	Z27	X28	Y28	Z28	X29	Y29	Z29	X30	Y30	Z30	X31	Y31	Z31	X32	Y32	Z32	X33	Y33	Z33	X34	Y34	Z34	X35	Y35	Z35	X36	Y36	Z36	X37	Y37	Z37	X38	Y38	Z38	X39	Y39	Z39	X40	Y40	Z40	X41	Y41	Z41	X42	Y42	Z42	X43	Y43	Z43	X44	Y44	Z44	X45	Y45	Z45

92	0.99	0.877354	1.53191	-0.323864	0.982194	1.43384	-0.307062	0.914261	1.52693	-0.486381	0.940902	1.00772	-0.465992	0.487098	0.554805	-0.388416	0.941056	1.19718	-0.563259	0.784773	1.19434	-0.642953	0.93215	1.13792	-0.597064	0.727067	1.27033	-0.670429	0.693296	1.247	-0.588146	0.437377	0.398738	-0.481802	0.828696	1.49637	-0.495298	0.771644	1.05504	-0.406389	0.818328	0.437042	-0.46087	0.714114	0.521594	-0.479754	0.628693	0.455553	-0.442914	0.851123	0.78267	-0.511525	0.936529	0.679937	-0.512601	0.899761	0.583814	-0.496085	0.457999	0.334542	-0.420735	0.813332	1.43326	-0.564738	0.739023	1.3696	-0.55896	0.740217	1.34138	-0.629328	0.92021	1.47697	-0.166671	0.932188	1.02579	-0.232319	0.825971	0.0997414	-0.362309	0.978739	1.06386	-0.0720727	0.801102	1.12249	0.000829959	0.949092	1.00989	-0.0434117	0.768943	1.19649	0.00711919	0.892427	0.118824	-0.295687	0.738067	1.17805	-0.0725255	0.915745	0.135189	-0.376079	0.97245	0.0568852	-0.26029	0.770513	1.0583	-0.319537	1.02722	0.39048	-0.300397	0.978076	0.340071	-0.257574	0.965006	0.215126	-0.309413	0.9047	0.780662	-0.189442	0.998876	0.741695	-0.224376	0.97098	0.624493	-0.230764	1.05219	0.0643867	-0.326917	0.859252	1.34336	-0.0697472	0.772801	1.30756	-0.0794826	0.770778	1.25947	-0.0272068
93	1	0.878958	1.53039	-0.322862	0.98302	1.43042	-0.30894	0.913083	1.52392	-0.487199	0.935449	1.00428	-0.464912	0.511972	0.541196	-0.394213	0.929405	1.18661	-0.569979	0.770056	1.19298	-0.642019	0.916438	1.12876	-0.604443	0.714345	1.27186	-0.665142	0.683482	1.24788	-0.582596	0.476013	0.380386	-0.485471	0.826658	1.49524	-0.493885	0.765974	1.05253	-0.405766	0.852131	0.438839	-0.459171	0.744982	0.518695	-0.480143	0.661718	0.448503	-0.444553	0.858217	0.78204	-0.510317	0.952398	0.685409	-0.510725	0.922843	0.588197	-0.494385	0.498941	0.318929	-0.422201	0.807454	1.43167	-0.562019	0.731892	1.36896	-0.553183	0.729776	1.34167	-0.624022	0.924799	1.47379	-0.166864	0.926977	1.02151	-0.227932	0.781841	0.100713	-0.361442	0.998077	1.06124	-0.0762391	0.820705	1.11302	-3.56952e-06	0.970708	1.00658	-0.0463151	0.786096	1.18586	0.00752253	0.849445	0.119819	-0.29523	0.753201	1.16589	-0.0714389	0.873337	0.135606	-0.375708	0.927983	0.0564275	-0.259449	0.766074	1.05605	-0.32014	1.00213	0.383653	-0.303238	0.950663	0.335965	-0.259105	0.928601	0.212053	-0.309875	0.895286	0.776218	-0.190332	0.988317	0.736592	-0.224861	0.95572	0.619505	-0.23206	1.00776	0.0631763	-0.32689	0.869273	1.33536	-0.0707226	0.782561	1.29756	-0.0779852	0.783543	1.24882	-0.0261169
94	1.01	0.879747	1.53022	-0.32223	0.983284	1.42887	-0.311199	0.911252	1.52303	-0.48768	0.930603	1.00468	-0.464382	0.535766	0.523854	-0.399023	0.917319	1.17943	-0.574579	0.755619	1.1935	-0.63936	0.900323	1.12253	-0.608661	0.702204	1.27512	-0.658674	0.674271	1.25123	-0.575759	0.516823	0.359655	-0.489188	0.824103	1.49609	-0.492457	0.76205	1.05243	-0.404578	0.885908	0.4436	-0.458075	0.774615	0.517239	-0.479683	0.694747	0.441321	-0.446139	0.865897	0.784636	-0.510178	0.969116	0.695484	-0.508648	0.945926	0.597008	-0.492758	0.543364	0.30109	-0.424256	0.801785	1.4326	-0.559265	0.725349	1.3712	-0.546748	0.72031	1.3443	-0.617988	0.929444	1.47285	-0.16783	0.923205	1.01897	-0.224844	0.738081	0.100978	-0.360534	1.0171	1.06384	-0.0837212	0.84059	1.10718	-0.00266822	0.992705	1.00828	-0.0525674	0.802599	1.17853	0.00649224	0.806458	0.120097	-0.294149	0.767858	1.15709	-0.0716433	0.830467	0.135327	-0.374968	0.883768	0.0562091	-0.258101	0.762959	1.05584	-0.319166	0.972994	0.374672	-0.304563	0.919835	0.329185	-0.25983	0.890466	0.207179	-0.310028	0.883828	0.77194	-0.190898	0.97486	0.728011	-0.223998	0.935132	0.61221	-0.233515	0.963648	0.0622577	-0.325976	0.878612	1.33096	-0.0722654	0.791955	1.29052	-0.0780535	0.795763	1.24154	-0.0263746
95	1.02	0.879563	1.53111	-0.321803	0.983241	1.42933	-0.313472	0.907877	1.52425	-0.487717	0.927298	1.00821	-0.464184	0.559854	0.503031	-0.402454	0.904945	1.1765	-0.57692	0.741365	1.19591	-0.634954	0.88431	1.1199	-0.609378	0.690194	1.27994	-0.651642	0.665094	1.2568	-0.567995	0.559381	0.337704	-0.49283	0.820381	1.49834	-0.490491	0.759785	1.05488	-0.402826	0.918772	0.450708	-0.457181	0.802536	0.516404	-0.478716	0.727641	0.433886	-0.447488	0.873929	0.789498	-0.510623	0.985847	0.709115	-0.506681	0.968818	0.608721	-0.491469	0.59059	0.282076	-0.427043	0.795751	1.43564	-0.556301	0.719102	1.37597	-0.540226	0.711395	1.34897	-0.611617	0.933949	1.47415	-0.16904	0.921415	1.01802	-0.22416	0.694928	0.101148	-0.360545	1.0344	1.07245	-0.0943066	0.859292	1.10539	-0.00713495	1.01382	1.01557	-0.0625558	0.817446	1.17476	0.00440171	0.763922	0.120738	-0.293391	0.781075	1.15246	-0.0729072	0.788529	0.135164	-0.374711	0.840102	0.0562106	-0.25724	0.761008	1.05786	-0.316605	0.941027	0.365938	-0.304329	0.885931	0.32256	-0.26007	0.85144	0.202708	-0.310051	0.871589	0.769225	-0.191116	0.959461	0.717987	-0.222453	0.912453	0.605027	-0.234658	0.92012	0.061911	-0.324955	0.886852	1.33013	-0.0739402	0.800706	1.2868	-0.0789829	0.807064	1.23779	-0.0274983
96	1.03	0.878835	1.53347	-0.321359	0.983119	1.43205	-0.315548	0.902749	1.5274	-0.487372	0.925698	1.01359	-0.464412	0.585617	0.479194	-0.404444	0.892563	1.17813	-0.577193	0.727317	1.20033	-0.628828	0.869068	1.12126	-0.607038	0.677893	1.28607	-0.644321	0.655443	1.26405	-0.559651	0.603405	0.315318	-0.496246	0.815445	1.50176	-0.487678	0.758923	1.05929	-0.401188	0.950144	0.459552	-0.456013	0.828698	0.515451	-0.477704	0.760631	0.426094	-0.448371	0.881643	0.796167	-0.510984	1.00125	0.725195	-0.50488	0.990665	0.622573	-0.490391	0.639855	0.262709	-0.430406	0.788867	1.44038	-0.552902	0.712493	1.38256	-0.534145	0.702279	1.35508	-0.60522	0.937965	1.47757	-0.170074	0.921677	1.01846	-0.225819	0.652568	0.102262	-0.361332	1.04882	1.08681	-0.107275	0.875767	1.10741	-0.0132186	1.03282	1.02819	-0.0759813	0.830324	1.1742	0.00164881	0.72211	0.122563	-0.29302	0.792337	1.15188	-0.0749277	0.748318	0.135886	-0.374925	0.797065	0.0563085	-0.25708	0.760016	1.06168	-0.313673	0.907594	0.3599	-0.302857	0.850165	0.318714	-0.259761	0.81212	0.200758	-0.309693	0.859685	0.768783	-0.191307	0.943297	0.709709	-0.221432	0.890062	0.600533	-0.234995	0.87709	0.061942	-0.324424	0.894013	1.33222	-0.0755862	0.808647	1.28642	-0.0798593	0.817274	1.2372	-0.0289738
97	1.04	0.87814	1.53778	-0.32084	0.983023	1.43701	-0.317513	0.896443	1.53224	-0.486838	0.925303	1.01987	-0.465282	0.613861	0.452967	-0.405116	0.880501	1.18396	-0.57571	0.713699	1.20689	-0.62126	0.855163	1.12656	-0.602686	0.665214	1.29338	-0.636545	0.645245	1.27252	-0.550824	0.649036	0.293073	-0.499293	0.809814	1.50645	-0.484155	0.759149	1.06492	-0.400233	0.979754	0.469626	-0.454477	0.853351	0.513814	-0.477032	0.793996	0.417962	-0.448631	0.888414	0.804578	-0.510935	1.01417	0.742714	-0.503198	1.01016	0.63843	-0.489265	0.690798	0.24367	-0.433955	0.781099	1.44659	-0.548948	0.705031	1.39039	-0.528542	0.692459	1.36217	-0.598832	0.941201	1.48293	-0.170926	0.923526	1.02021	-0.228673	0.610872	0.105979	-0.361954	1.0598	1.10578	-0.121747	0.889847	1.11269	-0.0205104	1.04885	1.04523	-0.0919075	0.841554	1.17628	-0.00147504	0.680771	0.126216	-0.292679	0.801679	1.1546	-0.0774139	0.709064	0.138311	-0.375113	0.754091	0.0565969	-0.257242	0.760015	1.06663	-0.311598	0.873425	0.357645	-0.300904	0.813779	0.318668	-0.259011	0.77243	0.202349	-0.308875	0.84839	0.770502	-0.191727	0.927215	0.705127	-0.221673	0.868269	0.599789	-0.234564	0.833603	0.0619664	-0.324382	0.900358	1.3365	-0.0772941	0.815795	1.28904	-0.0801003	0.826485	1.23921	-0.0304462
98	1.05	0.877678	1.544	-0.320413	0.982957	1.44387	-0.319573	0.889828	1.53845	-0.486339	0.925605	1.02688	-0.466616	0.644753	0.425086	-0.404702	0.869012	1.19313	-0.572727	0.700817	1.21554	-0.61274	0.84281	1.1352	-0.597387	0.652439	1.30182	-0.627969	0.634908	1.28202	-0.541376	0.696716	0.271523	-0.501783	0.804108	1.51248	-0.480402	0.760187	1.07139	-0.399918	1.0075	0.480387	-0.452683	0.876942	0.511025	-0.476786	0.827837	0.409556	-0.448176	0.894192	0.814636	-0.510654	1.02425	0.760724	-0.501673	1.02629	0.655899	-0.488008	0.743503	0.225659	-0.437111	0.77288	1.45422	-0.544506	0.696893	1.39922	-0.522955	0.682049	1.37018	-0.592215	0.943608	1.49001	-0.171864	0.926245	1.02332	-0.231378	0.569621	0.114165	-0.361477	1.06729	1.12783	-0.136973	0.901945	1.12068	-0.0284692	1.06154	1.06557	-0.109107	0.851605	1.18049	-0.00479518	0.639542	0.132339	-0.292034	0.809399	1.15976	-0.0801221	0.669235	0.143454	-0.374698	0.710178	0.0572763	-0.257306	0.761128	1.07227	-0.31065	0.838684	0.358995	-0.299078	0.777351	0.322236	-0.258064	0.732261	0.207468	-0.307684	0.837506	0.773994	-0.192444	0.911653	0.704196	-0.223099	0.846308	0.602431	-0.233831	0.78814	0.0616631	-0.324484	0.906107	1.3425	-0.0792058	0.822322	1.29413	-0.0797017	0.83494	1.24335	-0.0317823
99	1.06	0.877216	1.55152	-0.32029	0.982868	1.45213	-0.321783	0.883535	1.54576	-0.486009	0.926569	1.03486	-0.467717	0.678167	0.396316	-0.403617	0.85824	1.20453	-0.568454	0.688888	1.22592	-0.603692	0.831878	1.14616	-0.591743	0.64003	1.31133	-0.618418	0.625065	1.29251	-0.531175	0.746773	0.251079	-0.503375	0.798694	1.51973	-0.476858	0.76191	1.07865	-0.39979	1.03332	0.491171	-0.450679	0.900055	0.506797	-0.476729	0.862112	0.400918	-0.446979	0.899518	0.825989	-0.510578	1.03198	0.778369	-0.500421	1.03886	0.673854	-0.486771	0.798076	0.209329	-0.439098	0.764822	1.46315	-0.539759	0.688893	1.40896	-0.516798	0.671629	1.37926	-0.585025	0.945395	1.49852	-0.173082	0.929328	1.02785	-0.233304	0.528973	0.127764	-0.359621	1.07149	1.15152	-0.152414	0.912419	1.1308	-0.0366162	1.07082	1.08807	-0.126465	0.860694	1.18647	-0.00820046	0.59854	0.141279	-0.290842	0.815725	1.16679	-0.0828434	0.628315	0.15189	-0.37328	0.664494	0.0584253	-0.257067	0.76332	1.07854	-0.310289	0.803493	0.363449	-0.29739	0.740914	0.329034	-0.256881	0.692247	0.21554	-0.306087	0.827114	0.779041	-0.193423	0.896768	0.705836	-0.225215	0.823932	0.607744	-0.233142	0.739601	0.0609674	-0.324552	0.911334	1.34996	-0.0813515	0.828406	1.3011	-0.0790804	0.842789	1.2493	-0.0330323
